<svg width="512" height="488" viewBox="0 0 512 488" fill="none" xmlns="http://www.w3.org/2000/svg">
<path fill-rule="evenodd" clip-rule="evenodd" d="M128.478 1.96891C123.334 4.31091 117.406 10.9009 116.05 15.7819C115.438 17.9869 114.987 29.8039 114.984 43.7179L114.978 67.8329L99.7285 73.0699C91.3405 75.9499 82.4535 79.0299 79.9785 79.9139C73.8555 82.0999 64.9055 91.1089 62.4045 97.6029C60.5425 102.436 60.4695 107.063 60.2105 236.353L59.9435 370.103L57.2105 370.118C52.1015 370.145 41.5305 373.179 33.9935 376.78C23.6655 381.715 11.9425 393.493 6.79747 404.103C0.923473 416.217 -0.0245263 422.591 0.000473688 449.8C0.0254737 476.803 0.589474 479.417 7.54147 484.719L11.3225 487.603H255.978H500.634L504.415 484.719C511.583 479.251 511.931 477.396 511.956 444.489C511.968 428.477 511.529 412.952 510.979 409.989C509.417 401.558 503.541 390.663 497.097 384.245C487.686 374.872 475.833 370.136 461.728 370.115L453.978 370.103L453.972 306.853C453.969 264.459 453.609 242.314 452.882 239.694C451.225 233.729 447.124 228.274 442.056 225.295L437.478 222.603L367.978 222.103L298.478 221.603L298.223 128.268C298.066 70.9359 298.327 35.0619 298.899 35.2679C300.376 35.7989 357.338 90.8629 358.99 93.3569C360.241 95.2449 360.558 103.706 360.978 146.442L361.478 197.281L363.839 199.192C367.036 201.78 371.15 201.613 373.804 198.789C375.976 196.477 375.978 196.421 375.978 146.947C375.978 93.8289 375.818 91.8839 370.802 84.5379C367.561 79.7909 297.355 11.9199 293.903 10.1969C291.23 8.86291 287.798 9.89991 227.032 30.3829L162.978 51.9739V37.5879C162.978 20.7199 161.901 14.6779 157.915 9.17491C151.906 0.879909 138.224 -2.47009 128.478 1.96891ZM141.859 15.2109C147.276 17.0999 147.978 19.8819 147.978 39.4639V56.9239L138.978 59.9429L129.978 62.9609V41.2059C129.978 19.9189 130.026 19.4079 132.228 17.4049C134.242 15.5719 136.355 14.4089 138.079 14.1819C138.409 14.1389 140.11 14.6019 141.859 15.2109ZM283.978 47.4799V67.8569L201.288 95.6699C154.375 111.449 117.815 124.266 116.788 125.293C112.753 129.328 116.131 137.103 121.918 137.103C123.492 137.103 160.216 125.178 203.525 110.603C246.835 96.0279 282.654 84.1029 283.124 84.1029C283.594 84.1029 283.978 92.5949 283.978 102.975V121.847L243.228 135.611C220.816 143.181 183.633 155.671 160.601 163.366C136.633 171.374 117.923 178.158 116.851 179.23C112.767 183.314 116.081 191.103 121.903 191.103C123.468 191.103 160.181 179.178 203.487 164.603C246.793 150.028 282.62 138.103 283.102 138.103C283.584 138.103 283.978 146.597 283.978 156.978V175.854L205.728 202.137C112.822 233.343 117.224 231.775 115.974 234.111C113.433 238.858 116.861 245.103 122.007 245.103C123.48 245.103 160.121 233.178 203.431 218.603C246.74 204.028 282.581 192.103 283.077 192.103C283.58 192.103 283.978 200.441 283.978 210.98V229.857L201.288 257.67C154.375 273.449 117.815 286.266 116.788 287.293C112.861 291.22 116.327 299.103 121.98 299.103C123.44 299.103 160.076 287.178 203.393 272.603C246.711 258.028 282.563 246.103 283.065 246.103C283.583 246.103 283.978 254.268 283.978 264.981V283.86L232.778 301.053C204.618 310.51 180.747 318.692 179.73 319.236C175 321.767 175.803 329.294 181.072 331.819C183.39 332.931 188.585 331.407 233.052 316.578C260.224 307.517 282.8 300.103 283.222 300.103C283.644 300.103 283.875 339.14 283.734 386.853L283.478 473.603L251.228 473.867L218.978 474.131L218.972 434.367C218.969 410.456 218.561 393.141 217.948 390.935C216.725 386.533 211.408 381.592 206.408 380.211C203.492 379.406 200.958 379.685 193.441 381.638C172.229 387.149 126.398 400.351 123.783 401.704C122.236 402.504 119.734 405.025 118.224 407.306L115.478 411.453L115.188 442.799L114.897 474.145L95.1885 473.874L75.4785 473.603L75.2255 290.07L74.9735 106.538L77.2255 102.129C78.4645 99.7039 80.7075 96.8249 82.2105 95.7299C84.3205 94.1919 279.979 27.4599 283.228 27.1699C283.641 27.1329 283.978 36.2729 283.978 47.4799ZM434.657 238.049C435.855 238.844 437.318 240.553 437.907 241.846C438.633 243.44 438.978 265.074 438.978 309.055V373.912L433.682 376.901C419.236 385.054 410.624 399.694 409.3 418.349L408.677 427.12L353.578 426.861L298.478 426.603L298.22 332.603C298.078 280.903 298.181 238.028 298.449 237.326C299.216 235.315 431.596 236.018 434.657 238.049ZM325.277 257.063C319.974 260.296 318.978 263.47 318.978 277.149C318.978 290.5 319.898 293.443 325.018 296.467C327.458 297.909 332.574 298.103 368.132 298.099C406.318 298.096 408.649 297.992 411.664 296.153C416.84 292.997 417.478 290.908 417.478 277.103C417.478 266.465 417.188 264.121 415.522 261.369C411.768 255.162 411.313 255.103 367.827 255.107C330.564 255.11 328.309 255.214 325.277 257.063ZM402.978 276.603V283.103H368.478H333.978V276.603V270.103H368.478H402.978V276.603ZM326.248 313.568C320.329 316.173 318.986 319.941 318.982 333.949C318.978 347.517 319.879 350.432 325.018 353.467C327.458 354.909 332.574 355.103 368.132 355.099C406.318 355.096 408.649 354.992 411.664 353.153C416.32 350.314 417.273 347.726 417.764 336.603C418.288 324.695 417.109 319.561 412.929 315.555L409.849 312.603L369.663 312.375C336.737 312.188 328.894 312.404 326.248 313.568ZM402.978 333.603V340.103H368.478H333.978V333.603V327.103H368.478H402.978V333.603ZM133.064 334.533C124.148 337.597 117.087 340.601 116.314 341.658C113.103 346.05 116.632 353.103 122.041 353.103C123.38 353.103 131.348 350.813 139.748 348.013C153.444 343.448 155.18 342.612 156.578 339.91C159.126 334.982 155.613 328.976 150.294 329.169C149.295 329.205 141.542 331.618 133.064 334.533ZM324.851 371.787C319.85 374.891 318.978 377.792 318.993 391.257C319.009 405.078 319.694 407.321 324.986 410.887C328.337 413.146 329.059 413.22 344.8 412.917L361.137 412.603L364.557 408.868L367.978 405.132V392.068C367.978 371.015 366.936 370.09 343.278 370.13C330.446 370.151 326.985 370.462 324.851 371.787ZM59.9785 406.103V427.103H37.4595H14.9405L15.5305 424.353C17.8555 413.515 21.4675 406.453 28.3435 399.302C35.9205 391.422 48.2095 385.298 56.7285 385.157L59.9785 385.103V406.103ZM352.978 391.603V398.103H343.478H333.978V391.603V385.103H343.478H352.978V391.603ZM477.762 388.438C489.648 394.586 496.055 404.822 496.794 418.853L497.229 427.103H460.603H423.978V421.813C423.978 410.176 428.169 400.625 436.492 393.3C443.917 386.765 449.479 385.041 461.978 385.402C471.115 385.666 473.164 386.06 477.762 388.438ZM203.74 434.665L203.478 473.603H188.978H174.478L174.215 437.972L173.953 402.341L188.215 398.344C196.06 396.145 202.821 394.657 203.24 395.037C203.659 395.416 203.884 413.249 203.74 434.665ZM158.978 440.603V474.103H144.463H129.948L130.213 444.353L130.478 414.603L142.978 410.957C149.853 408.952 156.265 407.265 157.228 407.207C158.862 407.11 158.978 409.325 158.978 440.603ZM59.9785 458.103V474.103H39.4125C27.1485 474.103 18.0665 473.685 16.9125 473.068C15.1325 472.115 14.9785 470.84 14.9785 457.068V442.103H37.4785H59.9785V458.103ZM408.978 458.111V474.12L353.728 473.861L298.478 473.603L298.203 457.853L297.927 442.103H353.453H408.978V458.111ZM496.978 457.068C496.978 470.904 496.83 472.112 495.019 473.081C493.734 473.769 481.272 474.039 458.769 473.866L424.478 473.603L424.203 457.853L423.927 442.103H460.453H496.978V457.068Z" fill="black"/>
</svg>
