<svg width="410" height="474" viewBox="0 0 410 474" fill="none" xmlns="http://www.w3.org/2000/svg">
<path fill-rule="evenodd" clip-rule="evenodd" d="M202.077 0.974091C200.911 1.44509 197.275 5.12909 193.998 9.16109C179.755 26.6851 169.415 45.3961 162.659 65.8761L158.492 78.5081L151.344 71.6341C131.898 52.9311 95.902 31.9911 83.197 31.9911C78.548 31.9911 77.321 34.1281 74.588 46.9911C72.739 55.6911 72.343 60.8341 72.277 76.9911C72.233 87.7161 72.549 98.4601 72.979 100.866C73.734 105.09 73.682 105.219 71.479 104.596C58.324 100.878 49.037 98.8251 43.097 98.3231C36.588 97.7731 35.77 97.9181 33.697 99.9911C31.499 102.189 31.444 102.693 31.975 115.876C32.687 133.566 35.953 149.39 42.113 164.991C42.613 166.259 41.062 166.526 32.06 166.717C26.205 166.841 17.397 167.681 12.486 168.584C-1.63902 171.179 -2.61602 173.556 3.78298 189.747C14.853 217.759 36.207 244.065 61.832 261.259L69.629 266.491L69.663 279.593C69.694 291.519 69.901 293 71.967 296.093C75.42 301.262 79.794 302.988 89.447 302.989L97.697 302.991V356.545V410.099L94.673 413.295C86.225 422.223 83.19 438.262 87.682 450.238C90.305 457.23 97.643 465.566 104.358 469.183C122.616 479.017 144.714 471.889 153.916 453.197C156.889 447.159 157.197 445.686 157.197 437.512C157.197 429.884 156.795 427.635 154.596 422.945C153.165 419.895 150.578 415.786 148.846 413.813L145.697 410.227V356.609V302.991H204.697H263.697V356.609V410.227L260.548 413.813C258.816 415.786 256.229 419.895 254.798 422.945C252.599 427.635 252.197 429.884 252.197 437.512C252.197 445.689 252.504 447.157 255.484 453.209C264.392 471.304 286.393 478.819 304.064 469.804C310.138 466.705 317.393 459.309 320.435 453.116C322.892 448.112 323.197 446.387 323.197 437.491C323.197 428.636 322.887 426.861 320.486 421.991C318.995 418.966 316.408 415.001 314.736 413.179L311.697 409.868V356.429V302.991L319.947 302.989C329.6 302.988 333.974 301.262 337.427 296.093C339.493 293 339.7 291.519 339.731 279.593L339.765 266.491L347.562 261.259C373.187 244.065 394.541 217.759 405.611 189.747C412.01 173.556 411.033 171.179 396.908 168.584C391.997 167.681 383.189 166.841 377.334 166.717C368.332 166.526 366.781 166.259 367.281 164.991C373.441 149.39 376.707 133.566 377.419 115.876C377.95 102.693 377.895 102.189 375.697 99.9911C373.624 97.9181 372.806 97.7731 366.297 98.3231C360.353 98.8251 351.106 100.869 337.895 104.601C335.763 105.203 335.653 105.039 336.395 102.371C336.836 100.787 337.173 90.0411 337.143 78.4911C337.096 60.6021 336.754 55.9361 334.832 46.9911C333.59 41.2161 331.917 35.4781 331.113 34.2411C328.111 29.6221 319.278 32.0061 297.348 43.3541C284.039 50.2411 268.71 61.3011 258.073 71.6911L250.949 78.6491L246.787 66.0701C239.942 45.3801 229.61 26.6481 215.403 9.17009C210.66 3.33409 206.017 -0.505909 204.382 0.0540908C204.28 0.0890908 203.243 0.503091 202.077 0.974091ZM210.929 25.7411C220.873 39.6201 230.92 59.9511 235.601 75.6701C247.071 114.183 245.176 156.921 230.144 198.741L226.46 208.991H204.673H182.886L179.805 200.476C160.17 146.21 161.491 94.3201 183.638 50.0131C189.985 37.3131 202.72 17.9911 204.742 17.9911C205.09 17.9911 207.874 21.4781 210.929 25.7411ZM102.566 54.0821C120.54 63.4501 140.31 78.5831 150.544 90.8081L154.892 96.0011L153.794 104.155C152.263 115.534 152.457 142.549 154.157 154.491C156.268 169.328 159.423 183.041 163.797 196.393C165.942 202.939 167.697 208.452 167.697 208.643C167.697 208.834 161.895 208.991 154.803 208.991H141.909L134.955 201.241C115.377 179.42 102.887 158.396 94.358 132.904C89.205 117.503 86.612 102.83 85.977 85.4911C85.486 72.1031 86.845 51.1781 88.365 48.7191C89.111 47.5121 92.196 48.6781 102.566 54.0821ZM322.088 53.0701C322.594 55.5011 323.047 66.9411 323.095 78.4911C323.169 96.6741 322.872 101.024 320.875 110.917C314.013 144.922 299.22 173.665 274.39 201.241L267.412 208.991H254.555C247.483 208.991 241.697 208.834 241.697 208.643C241.697 208.452 243.452 202.939 245.597 196.393C253.206 173.168 256.647 151.896 256.677 127.9C256.688 119.325 256.203 108.64 255.6 104.155L254.502 96.0011L258.85 90.8081C264.751 83.7591 279.376 71.1351 289.66 64.2151C299.332 57.7061 318.374 47.7171 320.047 48.2741C320.664 48.4801 321.582 50.6381 322.088 53.0701ZM57.704 115.367C62.375 116.674 68.447 118.644 71.197 119.746L76.197 121.749L81.297 136.942C89.438 161.195 100.251 180.996 115.998 200.491L122.46 208.491L104.829 208.794L87.197 209.096L81.558 203.028C69.44 189.987 56.319 166.35 51.285 148.491C48.274 137.811 45.697 123.455 45.697 117.36C45.697 112.091 45.883 112.06 57.704 115.367ZM363.693 117.241C363.687 123.544 361.093 138.272 358.189 148.491C353.221 165.969 339.241 190.795 326.429 204.891L322.662 209.036L304.798 208.763L286.934 208.491L293.396 200.491C309.007 181.165 320.687 159.762 327.777 137.491C330.053 130.341 332.219 123.87 332.59 123.11C333.38 121.493 339.953 118.791 351.178 115.47C362.977 111.979 363.698 112.081 363.693 117.241ZM44.438 180.638C49.644 181.263 49.703 181.31 53.19 187.545C56.137 192.814 62.874 202.298 70.947 212.542C72.532 214.553 72.557 215.032 71.203 217.627C70.083 219.775 69.708 224.055 69.703 234.741C69.7 242.578 69.4 248.991 69.038 248.991C67.72 248.991 57.032 240.457 50.329 234.053C43.173 227.216 33.318 215.072 27.964 206.491C24.062 200.238 15.557 182.798 16.13 182.224C17.483 180.871 37.188 179.767 44.438 180.638ZM391.112 181.825L393.549 182.491L390.764 188.991C384.459 203.702 371.833 221.745 359.538 233.612C352.11 240.782 342.032 248.991 340.658 248.991C340.089 248.991 339.694 243.185 339.691 234.741C339.686 224.055 339.311 219.775 338.191 217.627C336.519 214.421 335.835 215.783 344.921 204.221C347.52 200.915 351.926 194.448 354.713 189.85C359.294 182.294 360.137 181.427 363.489 180.827C367.642 180.083 387.346 180.795 391.112 181.825ZM325.697 255.991V288.991H204.697H83.697V255.991V222.991H204.697H325.697V255.991ZM195.87 231.896C189.655 234.042 183.58 239.535 180.591 245.711L178.519 249.991H148.608C120.03 249.991 118.608 250.08 116.697 251.991C114.176 254.512 114.141 258.083 116.608 261.13L118.518 263.491L149.009 263.782L179.501 264.073L180.07 266.343C181.081 270.367 186.489 276.785 191.195 279.542C196.591 282.705 205.949 283.822 212.405 282.075C218.577 280.405 224.733 275.254 227.667 269.305L230.197 264.175L260.536 263.833L290.876 263.491L292.786 261.13C295.253 258.083 295.218 254.512 292.697 251.991C290.786 250.08 289.364 249.991 260.702 249.991H230.707L228.613 245.537C225.669 239.273 219.014 233.46 212.61 231.558C205.857 229.552 202.457 229.621 195.87 231.896ZM212.086 246.326C213.357 247.159 215.182 249.494 216.141 251.513C218.5 256.485 217.484 261.404 213.218 265.67C210.308 268.58 209.253 268.991 204.697 268.991C200.141 268.991 199.086 268.58 196.176 265.67C191.782 261.276 190.828 256.308 193.408 251.26C196.86 244.506 205.731 242.162 212.086 246.326ZM131.697 352.252V401.513H121.697H111.697V352.252V302.991H121.697H131.697V352.252ZM297.697 352.241L297.696 401.491L287.697 401.513L277.697 401.536V352.263V302.991H287.697H297.697V352.241ZM131.817 417.785C145.519 424.943 147.78 443.208 136.277 453.811C123.478 465.608 103.016 458.726 99.806 441.545C97.931 431.508 102.942 421.648 112.08 417.393C119.091 414.129 125.045 414.247 131.817 417.785ZM297.387 417.427C306.596 421.715 311.781 432.167 309.588 442.023C305.858 458.793 286.177 465.207 273.281 453.856C261.576 443.553 263.786 424.989 277.577 417.785C284.374 414.234 290.3 414.127 297.387 417.427Z" fill="black"/>
</svg>
