<svg width="497" height="472" viewBox="0 0 497 472" fill="none" xmlns="http://www.w3.org/2000/svg">
<path fill-rule="evenodd" clip-rule="evenodd" d="M237.166 1.72899C229.759 4.27799 224.315 10.208 221.627 18.654C219.79 24.425 219.365 28.679 218.922 45.75C218.561 59.642 218.045 66.005 217.281 66.017C209.875 66.132 193.303 68.955 176.666 72.935C142.457 81.12 144.832 80.898 109.166 79.225C88.2422 78.244 82.8642 77.394 79.7512 74.577C76.9122 72.008 67.1022 67.988 60.0012 66.483C47.9062 63.92 28.6952 64.892 26.4832 68.178C25.9942 68.905 25.8072 70.963 26.0672 72.75L26.5402 76H14.6262C3.03124 76 2.66824 76.067 1.07924 78.492C-0.90276 81.517 -0.67776 82.153 6.26624 93.159C11.6762 101.732 11.8472 101.889 19.1502 104.929C33.1072 110.739 42.2442 112.373 61.1662 112.44C70.5162 112.473 80.0222 112.166 82.2912 111.758L86.4152 111.016L92.6972 125.995C96.1522 134.232 99.7082 141.633 100.599 142.44C102.607 144.257 128.216 147.803 145.666 148.68C157.023 149.251 159.029 149.654 167.601 153.09L177.036 156.872L176.779 162.186C176.637 165.109 175.5 181.45 174.251 198.5C172.697 219.726 172.294 230.119 172.973 231.463C173.518 232.543 177.038 237.588 180.795 242.675L187.626 251.924L186.634 264.712C185.848 274.839 181.691 375.389 181.671 384.75C181.666 386.894 181.292 387 173.723 387C161.965 387 162.666 384.544 162.666 425.723V460H132.237C105.908 460 101.597 460.212 100.237 461.571C98.3482 463.461 98.2022 466.984 99.9162 469.323C101.084 470.916 110.773 471.028 247.666 471.032C384.706 471.036 394.247 470.926 395.416 469.327C397.13 466.983 396.984 463.461 395.095 461.571C393.736 460.213 389.472 460 363.631 460H333.74L333.453 424.919C333.115 383.575 334.318 387 320.137 387H310.99L310.335 350.468L309.68 313.937L312.995 305.715L316.311 297.493L313.552 236.496C312.035 202.948 310.697 171.936 310.578 167.581L310.361 159.662L319.764 156.45C324.935 154.684 331.191 152.339 333.666 151.239C336.994 149.759 341.292 149.088 350.166 148.662C367.255 147.841 393.844 144.223 395.604 142.478C396.395 141.694 399.867 134.403 403.319 126.276L409.596 111.5L415.381 112C418.563 112.275 428.591 112.441 437.666 112.369C451.879 112.256 455.483 111.888 463.666 109.709C468.891 108.318 475.732 106.03 478.867 104.624C483.997 102.325 485.175 101.166 490.617 93.073C500.563 78.281 499.3 76 481.157 76H468.792L469.265 72.75C469.525 70.963 469.338 68.905 468.849 68.178C467.5 66.174 461.156 65.048 451.166 65.041C436.373 65.031 429.232 67.087 412.166 76.272C408.618 78.182 405.735 78.528 386.666 79.334C350.789 80.85 350.038 80.771 312.666 71.536C304.691 69.565 294.791 67.676 290.666 67.339C279.045 66.388 279.669 67.387 279.646 49.715C279.607 19.956 276.049 9.16099 264.285 3.10699C257.876 -0.191011 244.692 -0.861012 237.166 1.72899ZM259.825 13.753C264.309 16.402 266.848 22.797 267.424 32.888L267.921 41.606L263.043 45.905C257.68 50.633 251.782 54 248.861 54C246.561 54 236.064 47.263 232.773 43.676C230.536 41.236 230.414 40.515 230.909 32.584C231.933 16.178 237.665 10.344 251.554 11.573C254.517 11.835 258.239 12.816 259.825 13.753ZM244.339 64.602C250.025 66.313 255.052 65.302 261.841 61.082C264.568 59.387 267.154 58 267.589 58C268.024 58 268.686 62.069 269.062 67.043C269.708 75.609 269.603 76.344 267.069 81.001C258.563 96.628 237.101 95.257 230.161 78.642C228.605 74.919 228.624 70.802 230.243 60.307L230.735 57.114L235.273 60.177C237.769 61.861 241.848 63.853 244.339 64.602ZM58.9382 78.056C64.4452 79.132 72.4182 82.941 74.8152 85.642C75.7232 86.664 77.5972 90.2 78.9802 93.5C81.1812 98.75 81.3032 99.609 79.9572 100.369C79.1112 100.847 71.6122 101.244 63.2922 101.252C47.3402 101.268 37.5572 99.802 26.8332 95.79C21.7602 93.891 16.6662 89.916 16.6662 87.854C16.6662 87.384 22.7312 87 30.1432 87C43.2102 87 43.6672 86.928 45.1702 84.635C46.3632 82.814 46.4832 81.649 45.6932 79.57C45.1282 78.085 44.6662 76.647 44.6662 76.374C44.6662 75.816 51.7382 76.649 58.9382 78.056ZM450.666 76.435C450.666 76.674 450.204 78.085 449.639 79.57C448.849 81.649 448.969 82.814 450.162 84.635C451.669 86.935 452.097 87 465.689 87C476.553 87 479.666 87.292 479.666 88.311C479.666 93.888 462.106 99.794 440.666 101.428C433.536 101.971 416.177 100.845 415.102 99.769C414.824 99.491 416.168 95.815 418.089 91.599C421.498 84.12 421.735 83.863 427.874 81.005C434.09 78.112 450.666 74.788 450.666 76.435ZM219.124 82.529C223.926 95.102 235.908 103.444 249.166 103.444C262.283 103.444 273.69 95.719 278.809 83.368C280.718 78.763 281.415 78 283.719 78C288.457 78 302.99 80.857 321.416 85.411C345.142 91.275 353.651 92.455 365.571 91.535C375.381 90.777 405.665 90.24 405.666 90.823C405.666 91.001 401.761 100.38 396.987 111.666C390.598 126.772 387.762 132.39 386.237 132.961C385.098 133.387 379.441 134.272 373.666 134.928C367.891 135.585 361.816 136.365 360.166 136.662C357.419 137.158 357.772 136.621 364.348 130.295C373.877 121.131 375.102 115.977 368.327 113.562C365.919 112.704 365.036 113.262 357.931 120.138C346.382 131.312 332.201 140.171 318.095 145.024C310.719 147.562 309.666 147.513 309.666 144.634C309.666 142.659 310.631 141.916 315.501 140.14C322.474 137.598 331.913 131.652 338.308 125.775C344.473 120.108 352.666 109.212 352.666 106.68C352.666 103.73 349.764 101 346.628 101C344.418 101 342.978 102.264 339.033 107.664C333.351 115.443 323.944 123.56 316.234 127.335C313.241 128.801 310.375 130 309.864 130C309.354 130 308.613 124.262 308.217 117.25C307.433 103.348 306.493 101 301.711 101C297.596 101 296.666 102.734 296.666 110.403C296.666 117.268 303.132 266.392 304.057 280.853L304.527 288.207L301.347 287.71C299.597 287.437 294.311 287.656 289.6 288.197C282.637 288.996 280.372 288.904 277.498 287.703L273.962 286.226L273.321 250.863C272.969 231.413 272.586 197.186 272.471 174.803C272.279 137.697 272.411 133.94 273.963 132.224C276.082 129.883 276.168 125.661 274.131 123.971C272.107 122.291 268.261 122.475 261.065 124.597C252.949 126.99 238.555 126.764 228.312 124.084C218.69 121.566 204.683 114.933 194.666 108.151C185.029 101.625 168.539 87.707 169.459 86.873C170.327 86.086 194.106 80.373 201.666 79.135C204.691 78.639 209.467 78.181 212.28 78.117L217.394 78L219.124 82.529ZM130.666 91.554C136.437 91.97 143.05 91.79 147.513 91.095L154.86 89.952L161.219 95.901C171.519 105.536 183.42 114.768 193.358 120.831L202.648 126.5L202.657 181.173L202.666 235.847L200.077 238.923C198.653 240.615 196.864 242 196.101 242C195.338 242 192.227 238.696 189.187 234.658L183.661 227.316L185.662 198.908C186.762 183.284 187.921 168.137 188.236 165.25L188.81 160H192.538C197.123 160 198.666 158.574 198.666 154.335C198.666 150.329 197.788 149.816 186.22 147.069C169.658 143.136 150.406 132.442 137.05 119.758C133.136 116.041 129.299 113 128.522 113C125.765 113 122.666 116.071 122.666 118.803C122.666 120.852 124.567 123.333 130.652 129.225L138.638 136.958L133.902 136.396C121.968 134.979 108.428 133.092 108.173 132.81C108.019 132.64 103.892 123.05 99.0002 111.5L90.1082 90.5L105.637 90.685C114.178 90.786 125.441 91.178 130.666 91.554ZM144.321 102.829C141.616 105.818 142.369 108.25 148.178 115.293C158.894 128.285 175.124 139.169 188.118 142.077C195.59 143.749 198.666 142.456 198.666 137.644C198.666 133.541 197.651 132.651 191.166 131.067C179.845 128.302 165.155 118.207 156.196 107.038C150.932 100.475 147.54 99.272 144.321 102.829ZM225.666 135.312C231.726 137.071 235.776 137.49 246.757 137.494L260.348 137.5L261.006 180C261.368 203.375 261.664 237.747 261.665 256.382L261.666 290.264L265.144 293.544C270.892 298.965 276.881 300.364 290.789 299.533C298.929 299.048 302.666 299.158 302.666 299.884C302.666 300.466 301.605 303.343 300.307 306.277C297.77 312.013 293.103 315.762 283.266 319.964C273.037 324.334 271.884 324.292 257.364 319.013C232.506 309.975 219.186 303.724 204.784 294.336L196.401 288.872L197.022 280.686C197.364 276.184 197.941 268.291 198.306 263.148L198.968 253.795L203.83 250.804C206.892 248.92 209.705 246.089 211.429 243.156L214.166 238.5L214.45 185.156C214.715 135.226 214.843 131.854 216.45 132.474C217.394 132.838 221.541 134.116 225.666 135.312ZM200.934 305.536L204.666 308.072V347.586V387.1L198.916 386.8C193.207 386.502 193.167 386.478 193.374 383.5C193.488 381.85 194.13 363.063 194.8 341.75C195.47 320.438 196.285 303 196.61 303C196.935 303 198.881 304.141 200.934 305.536ZM223.144 317.708L228.666 320.417V353.708V387H222.666H216.666V351C216.666 331.2 216.881 315 217.144 315C217.407 315 220.107 316.219 223.144 317.708ZM251.666 358.141V387H246.166H240.666V356.115V325.231L246.166 327.257L251.666 329.283V358.141ZM298.666 332.559C298.666 336.166 298.287 338.884 297.823 338.597C297.359 338.31 294.64 336.501 291.78 334.577L286.581 331.078L291.374 328.676C298.574 325.067 298.666 325.116 298.666 332.559ZM270.666 336.291L275.166 338.5L275.434 362.75L275.702 387H269.684H263.666V360.5C263.666 339.945 263.946 334.009 264.916 334.041C265.604 334.064 268.191 335.076 270.666 336.291ZM296.251 354.101L299.666 358.189V372.595V387H293.166H286.666V365.911V344.822L289.751 347.418C291.447 348.845 294.372 351.853 296.251 354.101ZM321.666 429.086V460H248.166H174.666V428.966V397.933L248.166 398.052L321.666 398.172V429.086Z" fill="black"/>
</svg>
